<svg width="201" height="90" viewBox="0 0 201 90" fill="none" xmlns="http://www.w3.org/2000/svg">
<path d="M176.624 54.1196C176.624 49.2102 172.556 45.2305 167.545 45.2305C165.667 45.2305 163.926 45.7873 162.473 46.7459V45.9034H155.254V69.4771H162.473V55.819C162.473 53.6306 164.084 51.8586 166.078 51.8586C168.071 51.8586 169.682 53.6306 169.682 55.819V69.4771H176.624V54.1196Z" fill="white"/>
<path d="M130.857 45.9075H122.835L115.821 55.6826V38.6016H108.598V69.4763H115.821V60.2918L121.946 69.4327H130.245L122.629 57.5176L130.857 45.9075Z" fill="white"/>
<path d="M107.877 45.9075H99.8545L92.841 55.6826V38.6016H85.6172V69.4763H92.841V60.2918L98.9652 69.4327H107.265L99.6441 57.5176L107.877 45.9075Z" fill="white"/>
<path d="M57.0145 53.6932C57.0145 62.8244 49.7094 70.2223 40.6928 70.2223C31.6762 70.2223 24.3711 62.8244 24.3711 53.6932C24.3711 44.562 31.681 37.1641 40.6928 37.1641C47.8497 37.1641 53.9213 41.841 56.1205 48.3336H48.3182C46.7023 45.6029 43.896 43.7922 40.6928 43.7922C35.6777 43.7922 31.6093 48.2271 31.6093 53.6932C31.6093 59.1593 35.6777 63.5942 40.6928 63.5942C44.1637 63.5942 47.1756 61.4688 48.7055 58.3508H39.0912V51.6113H56.8759C56.9476 52.2746 57.0193 52.9815 57.0193 53.698" fill="white"/>
<path d="M153.855 57.7364C153.855 50.842 148.199 45.25 141.224 45.25C134.249 45.25 128.598 50.842 128.598 57.7364C128.598 64.6308 134.249 70.2228 141.224 70.2228C146.631 70.2228 151.225 66.8579 153.028 62.1374H145.761C144.714 63.7787 143.074 64.8438 141.224 64.8438C138.738 64.8438 136.629 62.9266 135.841 60.254H153.582C153.754 59.4358 153.855 58.5982 153.855 57.7316V57.7364ZM136.037 55.0687C136.94 52.6963 138.919 51.0454 141.229 51.0454C143.538 51.0454 145.517 52.6963 146.425 55.0687H136.037Z" fill="white"/>
<path d="M76.2565 45.9088V46.9642C74.4972 45.9717 72.4701 45.4004 70.314 45.4004C63.5539 45.4004 58.0703 50.9537 58.0703 57.7997C58.0703 64.6456 62.9993 70.1989 70.314 70.1989C71.9777 70.1989 73.9665 69.5211 75.8597 68.3543C75.9936 68.272 76.2613 68.4366 76.2613 68.6061V69.4824H83.1983V45.9088H76.2613H76.2565ZM70.6869 64.1857C67.3308 64.1857 64.6153 61.2178 64.6153 57.5576C64.6153 53.8974 67.3308 50.9295 70.6869 50.9295C74.043 50.9295 76.7585 53.8974 76.7585 57.5576C76.7585 61.2178 74.0382 64.1857 70.6869 64.1857Z" fill="white"/>
<path d="M47.44 25.4557H41.5548V24.4148C40.895 24.8892 40.2209 25.3056 39.5181 25.6639L38.3086 24.0178C40.154 23.2722 41.985 21.9165 43.5245 19.9121H45.3555C46.9953 21.9214 48.8407 23.2092 50.6957 24.0081L49.4001 25.6687C48.7403 25.3201 48.0902 24.9328 47.44 24.4729V25.4654V25.4557ZM47.9133 26.0996H48.1188L49.2041 26.9324C48.377 29.1837 47.0336 30.9267 45.1882 32.2533L43.5675 31.0042C44.8153 30.2198 45.8958 29.1256 46.6463 27.8862H40.111V26.0948H47.918L47.9133 26.0996ZM46.4264 23.6789C45.7667 23.1124 45.1021 22.4685 44.428 21.6841C43.7779 22.4588 43.1324 23.1124 42.4823 23.6789H46.4264Z" fill="white"/>
<path d="M54.6146 31.4057V32.0351H52.707V20.5605H61.9388V32.0351H59.9548V31.4057H54.6146ZM59.9548 22.4197H54.6146V24.9954H59.9548V22.4197ZM59.9548 29.5659V26.811H54.6146V29.5659H59.9548Z" fill="white"/>
<path d="M65.1065 28.042C65.9671 28.8505 67.0141 29.9495 67.6404 30.7581L66.0531 32.0895C65.5607 31.3536 64.5137 30.0464 63.6914 29.2475L65.1065 28.0371V28.042Z" fill="white"/>
<path d="M72.3473 21.9953C72.2039 23.0072 72.1131 23.9222 72.1131 24.7647C72.1131 27.413 72.7202 28.9091 73.3561 28.9091C73.6812 28.9091 74.0302 28.2264 74.1975 27.137L75.9329 27.9262C75.4405 30.2599 74.5608 31.2718 73.4469 31.2718C71.8645 31.2718 70.043 29.369 70.043 24.8179C70.043 23.898 70.0812 22.9007 70.1864 21.8016L72.3473 22.0001V21.9953ZM78.3425 21.4434C80.3361 23.6221 80.9193 25.7475 81.0341 28.8268L78.7823 29.0253C78.7823 25.9412 78.2755 24.3967 76.5831 22.586L78.3425 21.4434Z" fill="white"/>
<path d="M90.9358 21.4286C89.731 22.7891 87.6131 24.8564 86.2601 25.8974C86.1836 25.9603 86.1454 26.0232 86.1454 26.0862C86.1454 26.1491 86.1836 26.2121 86.2314 26.2508C88.3015 27.621 90.1804 29.1606 91.433 30.4388L89.6545 32.0026C88.2394 30.3129 85.9207 28.4101 83.6641 26.885C83.4155 26.7059 83.3008 26.4784 83.3008 26.1975C83.3008 25.9167 83.4872 25.5488 83.8267 25.297C85.4187 24.0769 87.9382 21.69 89.2529 20.0391L90.931 21.4238L90.9358 21.4286Z" fill="white"/>
<path d="M100.024 21.7871C102.859 21.7871 104.652 23.4236 104.652 26.1155C104.652 29.2431 102.835 31.0587 97.3806 31.2427L96.9599 29.1415C101.282 29.1415 102.477 28.1102 102.477 26.2704C102.477 24.7405 101.511 23.8254 99.5893 23.8254C98.3798 23.8254 96.1806 24.4161 94.1105 25.0891L93.6133 22.9007C96.0037 22.4359 98.5088 21.792 100.024 21.792V21.7871Z" fill="white"/>
<path d="M113.234 26.0914V24.1838L112.139 24.7503C112 24.1693 111.718 23.4382 111.374 22.7797V23.8497H110.571V25.37C110.877 25.2925 111.168 25.2151 111.436 25.1376L111.589 26.8225C111.283 26.9241 110.939 27.0549 110.571 27.1711V30.26C110.571 31.3154 110.279 31.8819 109.361 32.0368C109.031 32.0901 108.343 32.0998 107.846 32.0756L107.463 30.1825C107.793 30.2212 108.238 30.2212 108.415 30.2067C108.591 30.1922 108.658 30.0905 108.658 29.9114V27.7859C108.228 27.9167 107.831 28.0425 107.501 28.1345L107.109 26.164C107.516 26.0865 108.061 25.9703 108.658 25.8299V23.8449H107.325V22.0535H108.658V19.9668H110.566V22.0535H111.369V22.3634L112.617 21.7194C112.846 22.1165 113.061 22.5328 113.229 22.9298V19.9668H115.074V26.3528C115.074 28.5654 114.615 30.5117 112.416 32.0707L111.044 30.6909C112.225 29.9453 112.799 29.1319 113.052 28.1394C112.607 28.5509 112.148 28.9624 111.818 29.2481L110.939 27.6407C111.498 27.2921 112.464 26.6385 113.229 26.0817L113.234 26.0914ZM117.493 25.8203C118.282 26.6191 118.894 27.3018 119.363 27.9699L117.914 29.0254C117.723 28.6768 117.493 28.3427 117.226 27.9844V28.8608C117.226 30.0179 117.24 30.0857 117.364 30.0857H117.555C117.646 30.0857 117.67 30.0324 117.685 29.558L119.415 29.8533C119.238 31.5914 118.932 31.8771 117.699 31.9255H117.216C115.677 31.8722 115.371 31.4607 115.371 28.8366V19.9765H117.226V23.1332C117.441 22.5909 117.618 22.0535 117.732 21.6275L119.348 22.4408C119.042 23.109 118.612 23.9708 118.139 24.7454L117.221 24.2177V26.0188L117.489 25.8251L117.493 25.8203Z" fill="white"/>
<path d="M124.224 28.1771V27.7123H122.063V22.4205H122.56C122.407 21.9073 122.101 21.2633 121.719 20.7356L123.129 20.1062C123.55 20.6969 123.865 21.3408 124.033 21.8588L122.737 22.4253H126.232L125.902 22.2849C126.332 21.5102 126.729 20.6388 126.944 20.019L128.646 20.6484C128.364 21.1762 128.01 21.8056 127.604 22.4253H128.302V27.7171H126.041V28.1819H128.522V29.8184H126.041V32.0988H124.224V29.8184H121.795V28.1819H124.224V28.1771ZM125.228 19.9609C125.582 20.5903 125.84 21.273 125.955 21.8007L124.453 22.343C124.339 21.7911 124.1 21.0939 123.779 20.4887L125.228 19.9609ZM123.679 24.483H124.224V23.9359H123.679V24.483ZM123.679 26.192H124.224V25.6304H123.679V26.192ZM126.61 24.483V23.9359H126.041V24.483H126.61ZM126.61 26.192V25.6304H126.041V26.192H126.61ZM133.403 25.6643C133.011 27.0296 132.413 28.2255 131.625 29.2713C131.778 29.7603 131.954 30.0459 132.146 30.0701C132.313 30.0943 132.385 29.8765 132.437 29.0389L133.962 29.5134C133.695 31.755 132.944 32.2585 131.763 32.0261C131.18 31.9099 130.721 31.4355 130.362 30.6753C129.817 31.1885 129.22 31.6533 128.555 32.0649L127.092 31.0239C128.149 30.4187 129.053 29.7119 129.789 28.8597C129.559 27.8188 129.397 26.5406 129.282 25.1124L128.546 25.2286L128.316 23.5824L129.167 23.4517C129.115 22.3575 129.067 21.2004 129.038 19.99H130.931C130.931 21.1229 130.946 22.2026 130.984 23.1951L133.58 22.8078L133.809 24.4297L131.051 24.8412C131.089 25.5094 131.142 26.1146 131.19 26.6714C131.419 26.1824 131.61 25.6546 131.763 25.1027L133.403 25.6692V25.6643ZM132.342 20.0481C133.006 20.6726 133.494 21.244 133.833 21.8153L132.366 22.7545C132.088 22.1687 131.649 21.5732 131.075 20.9535L132.342 20.0529V20.0481Z" fill="white"/>
<path d="M138.816 20.6396C138.591 23.2637 138.519 25.6748 138.519 26.8029C138.519 28.8364 139.102 29.5384 140.565 29.5384C141.942 29.5384 142.87 28.8219 143.663 26.3866L145.537 27.3016C144.237 30.652 142.588 31.5331 140.518 31.5331C137.778 31.5331 136.535 29.95 136.535 26.8368C136.535 25.6797 136.612 23.2734 136.659 20.6348H138.816V20.6396Z" fill="white"/>
<path d="M150.166 21.8245C150.228 21.3355 150.281 20.8465 150.305 20.3672L152.389 20.4689C152.337 20.9191 152.289 21.3694 152.222 21.8197H155.454V23.674H151.921C151.361 26.7145 150.458 29.6872 149.44 31.6723L147.57 30.733C148.589 28.9949 149.416 26.3562 149.884 23.674H147.991V21.8197H150.166V21.8245ZM154.603 28.0604C154.388 28.4865 154.283 28.7818 154.283 29.053C154.283 29.5274 155.134 29.6436 156.252 29.6436C156.874 29.6436 157.6 29.5807 158.337 29.4355V31.343C157.624 31.4205 156.926 31.4447 156.276 31.4447C154.053 31.4447 152.399 30.917 152.399 29.5904C152.399 29.1014 152.566 28.5107 152.906 27.7361L154.598 28.0556L154.603 28.0604ZM158.15 26.2352C157.653 26.1819 157.055 26.1577 156.41 26.1577C155.382 26.1722 154.134 26.2352 153.193 26.3901L153.078 24.589C154.058 24.4728 155.454 24.4341 156.573 24.4196C157.17 24.4196 157.715 24.4341 158.15 24.4583V26.2352Z" fill="white"/>
<path d="M166.058 27.4946C165.991 27.7028 165.958 28.0224 165.953 28.463H163.773C163.806 27.5431 163.892 26.904 164.031 26.5505C164.17 26.1971 164.533 25.7953 165.116 25.3353L165.704 24.8705C165.9 24.7253 166.053 24.5607 166.173 24.3864C166.388 24.0862 166.498 23.757 166.498 23.3938C166.498 22.9775 166.378 22.5998 166.139 22.2609C165.9 21.922 165.46 21.7477 164.825 21.7477C164.189 21.7477 163.758 21.9559 163.495 22.3771C163.233 22.7983 163.103 23.2341 163.103 23.6892H160.766C160.833 22.135 161.368 21.0311 162.372 20.3824C163.008 19.966 163.787 19.7578 164.715 19.7578C165.934 19.7578 166.942 20.0531 167.75 20.6438C168.558 21.2345 168.96 22.106 168.96 23.2631C168.96 23.9748 168.783 24.5703 168.434 25.0545C168.228 25.3498 167.836 25.7275 167.253 26.1826L166.68 26.6328C166.369 26.8798 166.158 27.1654 166.058 27.4946Z" fill="white"/>
<path d="M166.039 29.373H163.691V31.6776H166.039V29.373Z" fill="white"/>
</svg>
