<svg width="172" height="50" viewBox="0 0 172 50" fill="none" xmlns="http://www.w3.org/2000/svg">
<path d="M149.572 33.8095H158.816V35.9188H149.572V33.8095ZM159.675 33.91H171.672V35.9941H159.675V33.91ZM159.144 37.8774H171.949V40.1122H159.144V37.8774ZM162.377 47.2435H169.095V49.202H162.377V47.2435ZM162.377 44.2051H169.095V46.0131H162.377V44.2051ZM149.951 36.9734H158.412V39.0576H149.951V36.9734ZM149.142 40.1122H159.195V42.2214H149.142V40.1122ZM152.906 32.1523H155.76V49.9302H152.906V32.1523ZM161.872 32.1272H164.65V39.2835H161.872V32.1272ZM166.822 32.1272H169.626V39.2835H166.822V32.1272ZM160.811 41.0413H170.687V49.8047H167.807V42.9998H163.564V49.88H160.811V41.0413ZM155.558 41.669C155.777 41.8364 156.08 42.0875 156.467 42.4223C156.854 42.7571 157.275 43.1254 157.73 43.5272C158.184 43.9289 158.597 44.2972 158.967 44.632C159.338 44.9668 159.607 45.2179 159.776 45.3853L158.109 47.4443C157.873 47.1598 157.578 46.8166 157.225 46.4148C156.871 45.9963 156.484 45.5694 156.063 45.1342C155.659 44.699 155.271 44.2972 154.901 43.9289C154.531 43.5439 154.219 43.2342 153.967 42.9998L155.558 41.669ZM153.133 40.9408L155.002 42.0457C154.648 42.8324 154.194 43.6611 153.638 44.5316C153.099 45.3853 152.51 46.1972 151.87 46.9672C151.247 47.7205 150.633 48.3734 150.026 48.9258C149.875 48.6078 149.656 48.2227 149.37 47.7708C149.1 47.3355 148.831 46.984 148.562 46.7161C149.134 46.2976 149.707 45.7703 150.279 45.1342C150.868 44.4981 151.407 43.8117 151.895 43.0752C152.401 42.3386 152.813 41.6272 153.133 40.9408ZM152.83 28.3355H160.559V30.7461H152.83V28.3355ZM162.554 28.3104H172V30.7461H162.554V28.3104ZM152.653 26.2012L155.558 26.9796C155.221 27.8166 154.808 28.6452 154.32 29.4655C153.849 30.2858 153.344 31.0558 152.805 31.7756C152.283 32.4787 151.752 33.0897 151.214 33.6087C151.011 33.4413 150.759 33.2571 150.456 33.0562C150.153 32.8386 149.841 32.6294 149.521 32.4285C149.201 32.2109 148.924 32.0435 148.688 31.9263C149.513 31.2399 150.271 30.3862 150.961 29.365C151.668 28.3272 152.232 27.2725 152.653 26.2012ZM162.933 26.3016L165.888 27.0047C165.517 28.21 165.012 29.3734 164.372 30.495C163.733 31.6166 163.059 32.554 162.352 33.3073C162.167 33.1399 161.914 32.9558 161.594 32.7549C161.291 32.5373 160.98 32.328 160.66 32.1272C160.34 31.9095 160.053 31.7421 159.801 31.625C160.491 30.9721 161.106 30.1769 161.645 29.2395C162.2 28.2853 162.63 27.306 162.933 26.3016ZM154.194 29.9175L156.644 28.9884C156.981 29.4739 157.309 30.0179 157.629 30.6206C157.966 31.2065 158.21 31.717 158.361 32.1523L155.76 33.1818C155.642 32.7465 155.431 32.2276 155.128 31.625C154.825 31.0056 154.514 30.4364 154.194 29.9175ZM164.953 29.7919L167.403 28.9382C167.673 29.3399 167.934 29.8003 168.186 30.3192C168.439 30.8214 168.616 31.2567 168.717 31.625L166.115 32.6043C166.048 32.236 165.896 31.7924 165.66 31.2734C165.442 30.7377 165.206 30.2439 164.953 29.7919Z" fill="black"/>
<path d="M127.371 41.7443H144.217V49.9302H141.136V43.6527H130.301V49.9553H127.371V41.7443ZM128.912 44.5818H142.222V46.3144H128.912V44.5818ZM128.912 47.2937H142.222V49.202H128.912V47.2937ZM133.963 26.2012H137.019V40.2377H133.963V26.2012ZM126.815 27.7831H144.091V35.2659H126.537V33.4831H141.085V29.5659H126.815V27.7831ZM124.214 30.4699H146.996V32.554H124.214V30.4699ZM125.982 36.1448H145.127V37.9527H125.982V36.1448ZM124.188 38.8818H146.996V40.9659H124.188V38.8818Z" fill="black"/>
<path d="M112.899 30.4196C112.73 31.6918 112.512 33.0478 112.242 34.4874C111.973 35.927 111.611 37.3834 111.156 38.8566C110.668 40.5473 110.095 42.0037 109.439 43.2257C108.782 44.4477 108.058 45.3936 107.267 46.0632C106.492 46.716 105.642 47.0425 104.716 47.0425C103.789 47.0425 102.931 46.7328 102.139 46.1134C101.365 45.4773 100.742 44.6068 100.27 43.5019C99.8157 42.3971 99.5884 41.1416 99.5884 39.7354C99.5884 38.279 99.883 36.9063 100.472 35.6174C101.062 34.3284 101.878 33.19 102.922 32.2024C103.983 31.198 105.212 30.4112 106.61 29.842C108.024 29.2729 109.548 28.9883 111.181 28.9883C112.747 28.9883 114.153 29.2394 115.399 29.7416C116.662 30.2438 117.74 30.9385 118.632 31.8257C119.525 32.7129 120.206 33.7508 120.678 34.9394C121.149 36.1279 121.385 37.4085 121.385 38.7812C121.385 40.5389 121.023 42.1125 120.299 43.5019C119.575 44.8914 118.497 46.0381 117.066 46.942C115.652 47.846 113.884 48.4654 111.762 48.8002L109.868 45.8121C110.356 45.7618 110.786 45.7033 111.156 45.6363C111.526 45.5693 111.88 45.494 112.217 45.4103C113.025 45.2094 113.774 44.9248 114.465 44.5566C115.172 44.1715 115.787 43.7028 116.308 43.1504C116.83 42.5812 117.235 41.92 117.521 41.1667C117.824 40.4134 117.975 39.5848 117.975 38.6808C117.975 37.6931 117.824 36.7892 117.521 35.9689C117.218 35.1486 116.772 34.4372 116.182 33.8345C115.593 33.2152 114.877 32.7464 114.035 32.4284C113.193 32.0936 112.225 31.9262 111.131 31.9262C109.784 31.9262 108.597 32.1689 107.57 32.6544C106.542 33.1231 105.675 33.7341 104.968 34.4874C104.261 35.2407 103.722 36.0526 103.352 36.9231C102.998 37.7936 102.821 38.6222 102.821 39.409C102.821 40.246 102.922 40.9491 103.124 41.5182C103.326 42.0707 103.571 42.4892 103.857 42.7737C104.16 43.0416 104.48 43.1755 104.817 43.1755C105.17 43.1755 105.515 42.9997 105.852 42.6482C106.206 42.2799 106.551 41.7275 106.888 40.9909C107.224 40.2544 107.561 39.3253 107.898 38.2037C108.285 36.9984 108.614 35.7094 108.883 34.3367C109.152 32.9641 109.346 31.6248 109.464 30.3191L112.899 30.4196Z" fill="black"/>
<path d="M90.6223 27.9339C90.5718 28.1515 90.5044 28.4193 90.4202 28.7374C90.3529 29.0554 90.2855 29.3735 90.2182 29.6916C90.1508 30.0096 90.0919 30.2691 90.0414 30.47C89.772 31.5916 89.4689 32.7383 89.1321 33.9101C88.7954 35.0651 88.4165 36.2118 87.9956 37.3502C87.5746 38.4885 87.1032 39.5515 86.5812 40.5391C86.076 41.5268 85.512 42.4057 84.889 43.1757C84.1313 44.1466 83.4157 44.9418 82.7421 45.5612C82.0855 46.1805 81.4288 46.6409 80.7721 46.9422C80.1154 47.2268 79.3998 47.3691 78.6252 47.3691C77.9349 47.3691 77.2782 47.1849 76.6552 46.8167C76.049 46.4316 75.5523 45.8709 75.165 45.1343C74.7946 44.381 74.6094 43.4603 74.6094 42.3722C74.6094 41.2506 74.8114 40.1374 75.2155 39.0325C75.6365 37.9109 76.209 36.8731 76.933 35.9189C77.6739 34.9647 78.5411 34.1695 79.5345 33.5334C80.8815 32.6629 82.2033 32.0519 83.4998 31.7004C84.7964 31.3488 86.1181 31.1731 87.4652 31.1731C89.2163 31.1731 90.7654 31.5413 92.1125 32.2779C93.4595 32.9977 94.5119 34.0105 95.2696 35.3162C96.0273 36.622 96.4061 38.1537 96.4061 39.9114C96.4061 41.6691 96.0105 43.1924 95.2191 44.4814C94.4445 45.7537 93.3753 46.7748 92.0114 47.5449C90.6476 48.2982 89.09 48.8087 87.3389 49.0766L85.3941 46.1638C86.7917 46.0466 87.9787 45.7955 88.9553 45.4105C89.9488 45.0255 90.7486 44.54 91.3548 43.9541C91.9778 43.3682 92.4324 42.7153 92.7186 41.9955C93.0049 41.2757 93.148 40.5224 93.148 39.7356C93.148 38.5973 92.8954 37.6013 92.3903 36.7475C91.902 35.877 91.2116 35.1991 90.3192 34.7136C89.4268 34.2114 88.3744 33.9603 87.1621 33.9603C85.8319 33.9603 84.6448 34.1779 83.6009 34.6131C82.5569 35.0316 81.5971 35.559 80.7216 36.1951C80.0649 36.6638 79.5008 37.233 79.0294 37.9026C78.5579 38.5554 78.1959 39.2501 77.9433 39.9867C77.6907 40.7233 77.5644 41.4347 77.5644 42.1211C77.5644 42.7237 77.6907 43.2092 77.9433 43.5775C78.2127 43.9457 78.5663 44.1299 79.0041 44.1299C79.324 44.1299 79.6524 44.0378 79.9891 43.8537C80.3259 43.6528 80.6626 43.3933 80.9994 43.0753C81.3362 42.7405 81.6729 42.3554 82.0097 41.9202C82.3464 41.485 82.6832 41.0246 83.0199 40.5391C83.4914 39.8193 83.9376 39.0158 84.3586 38.1286C84.7795 37.2413 85.1584 36.3123 85.4951 35.3413C85.8487 34.3704 86.1434 33.433 86.3791 32.529C86.6149 31.6083 86.8001 30.7629 86.9348 29.9929C87.019 29.6246 87.0695 29.2061 87.0863 28.7374C87.12 28.2687 87.1368 27.892 87.1368 27.6074L90.6223 27.9339ZM79.9639 28.7625C80.048 29.181 80.1322 29.5911 80.2164 29.9929C80.3175 30.3946 80.4185 30.788 80.5195 31.1731C80.7047 31.8594 80.9236 32.6043 81.1762 33.4079C81.4288 34.1946 81.6982 34.9814 81.9844 35.7682C82.2875 36.555 82.5906 37.2832 82.8937 37.9528C83.1967 38.6057 83.4998 39.1664 83.8029 39.6352C84.2407 40.3048 84.7374 41.0079 85.2931 41.7444C85.8487 42.4642 86.4212 43.1087 87.0105 43.6779L84.4596 45.6867C83.9545 45.1343 83.4998 44.607 83.0957 44.1048C82.7085 43.5858 82.3043 43.0083 81.8834 42.3722C81.513 41.803 81.1341 41.1418 80.7468 40.3885C80.3764 39.6352 80.006 38.8149 79.6355 37.9277C79.2819 37.0405 78.9368 36.1281 78.6 35.1907C78.2801 34.2532 77.9686 33.3242 77.6655 32.4035C77.5308 31.9515 77.3792 31.5162 77.2108 31.0977C77.0593 30.6792 76.8741 30.244 76.6552 29.792L79.9639 28.7625Z" fill="black"/>
<path d="M64.4557 27.3813C64.4389 27.5153 64.4136 27.7329 64.38 28.0342C64.3631 28.3188 64.3463 28.6117 64.3294 28.9131C64.3126 29.1976 64.2958 29.4069 64.2789 29.5408C64.2621 29.8756 64.2537 30.3276 64.2537 30.8968C64.2537 31.4492 64.2537 32.0686 64.2537 32.7549C64.2537 33.4413 64.2537 34.136 64.2537 34.8391C64.2705 35.5254 64.2789 36.1783 64.2789 36.7976C64.2958 37.4003 64.3042 37.9025 64.3042 38.3043L61.1471 37.2496C61.1471 36.9316 61.1471 36.5131 61.1471 35.9941C61.1471 35.4584 61.1471 34.8809 61.1471 34.2615C61.1471 33.6254 61.1387 32.9976 61.1218 32.3783C61.1218 31.7589 61.1134 31.1981 61.0966 30.6959C61.0797 30.1937 61.0629 29.817 61.046 29.5659C61.0124 29.047 60.9703 28.595 60.9197 28.21C60.8692 27.8082 60.8271 27.532 60.7935 27.3813H64.4557ZM50.1855 30.495C50.9264 30.495 51.7683 30.4866 52.7112 30.4699C53.6542 30.4532 54.6392 30.4364 55.6663 30.4197C56.6934 30.4029 57.7037 30.3862 58.6971 30.3695C59.6906 30.3527 60.6251 30.3443 61.5007 30.3443C62.3762 30.3276 63.1339 30.3192 63.7738 30.3192C64.4136 30.3192 65.1124 30.3192 65.8701 30.3192C66.6278 30.3025 67.3771 30.2941 68.118 30.2941C68.8589 30.2941 69.5324 30.2941 70.1385 30.2941C70.7615 30.2941 71.2414 30.2941 71.5782 30.2941L71.5529 33.2571C70.7616 33.2236 69.7176 33.1985 68.4211 33.1818C67.1246 33.1483 65.5418 33.1316 63.6728 33.1316C62.5278 33.1316 61.366 33.1483 60.1873 33.1818C59.0086 33.1985 57.8384 33.2236 56.6766 33.2571C55.5148 33.2906 54.395 33.3324 53.3174 33.3827C52.2398 33.4161 51.2211 33.4664 50.2613 33.5333L50.1855 30.495ZM63.8496 37.9276C63.8496 39.3003 63.6812 40.4386 63.3444 41.3426C63.0245 42.2465 62.5362 42.9329 61.8795 43.4016C61.2228 43.8536 60.4062 44.0796 59.4296 44.0796C58.9581 44.0796 58.4614 43.9791 57.9394 43.7783C57.4343 43.5774 56.9628 43.2844 56.525 42.8994C56.0873 42.5144 55.7337 42.0373 55.4642 41.4681C55.2117 40.899 55.0854 40.2294 55.0854 39.4593C55.0854 38.5051 55.3127 37.6849 55.7673 36.9985C56.222 36.2954 56.8281 35.7514 57.5858 35.3664C58.3604 34.9646 59.2107 34.7637 60.1368 34.7637C61.2481 34.7637 62.1742 35.0148 62.9151 35.517C63.6728 36.0025 64.2368 36.6637 64.6073 37.5007C64.9945 38.3377 65.1882 39.2835 65.1882 40.3382C65.1882 41.1584 65.0535 42.0122 64.7841 42.8994C64.5147 43.7866 64.0685 44.6571 63.4455 45.5109C62.8393 46.3479 62.0142 47.1095 60.9703 47.7959C59.9432 48.4822 58.655 49.043 57.106 49.4783L54.4035 46.8166C55.4811 46.599 56.4829 46.3144 57.409 45.9628C58.3351 45.6113 59.1433 45.1677 59.8337 44.632C60.5409 44.0963 61.0881 43.4351 61.4754 42.6483C61.8795 41.8615 62.0816 40.9157 62.0816 39.8109C62.0816 39.0073 61.8795 38.4047 61.4754 38.0029C61.0881 37.6012 60.6167 37.4003 60.061 37.4003C59.7411 37.4003 59.4296 37.4756 59.1265 37.6263C58.8234 37.7769 58.5793 38.0029 58.3941 38.3043C58.2088 38.6056 58.1162 38.9739 58.1162 39.4091C58.1162 39.9783 58.3099 40.4386 58.6971 40.7902C59.1013 41.125 59.5559 41.2924 60.061 41.2924C60.4651 41.2924 60.8187 41.1668 61.1218 40.9157C61.4417 40.6646 61.6522 40.2461 61.7532 39.6602C61.8543 39.0743 61.7701 38.2875 61.5007 37.2998L63.8496 37.9276Z" fill="black"/>
<path d="M39.4513 27.3813C39.4345 27.5153 39.4092 27.7329 39.3756 28.0342C39.3587 28.3188 39.3419 28.6117 39.3251 28.9131C39.3082 29.1976 39.2914 29.4069 39.2745 29.5408C39.2577 29.8756 39.2493 30.3276 39.2493 30.8968C39.2493 31.4492 39.2493 32.0686 39.2493 32.7549C39.2493 33.4413 39.2493 34.136 39.2493 34.8391C39.2661 35.5254 39.2745 36.1783 39.2745 36.7976C39.2914 37.4003 39.2998 37.9025 39.2998 38.3043L36.1427 37.2496C36.1427 36.9316 36.1427 36.5131 36.1427 35.9941C36.1427 35.4584 36.1427 34.8809 36.1427 34.2615C36.1427 33.6254 36.1343 32.9976 36.1174 32.3783C36.1174 31.7589 36.109 31.1981 36.0922 30.6959C36.0753 30.1937 36.0585 29.817 36.0417 29.5659C36.008 29.047 35.9659 28.595 35.9154 28.21C35.8649 27.8082 35.8228 27.532 35.7891 27.3813H39.4513ZM25.1812 30.495C25.922 30.495 26.7639 30.4866 27.7069 30.4699C28.6498 30.4532 29.6348 30.4364 30.6619 30.4197C31.689 30.4029 32.6993 30.3862 33.6928 30.3695C34.6862 30.3527 35.6207 30.3443 36.4963 30.3443C37.3719 30.3276 38.1296 30.3192 38.7694 30.3192C39.4092 30.3192 40.108 30.3192 40.8657 30.3192C41.6234 30.3025 42.3727 30.2941 43.1136 30.2941C43.8545 30.2941 44.528 30.2941 45.1342 30.2941C45.7572 30.2941 46.237 30.2941 46.5738 30.2941L46.5486 33.2571C45.7572 33.2236 44.7132 33.1985 43.4167 33.1818C42.1202 33.1483 40.5374 33.1316 38.6684 33.1316C37.5234 33.1316 36.3616 33.1483 35.1829 33.1818C34.0043 33.1985 32.834 33.2236 31.6722 33.2571C30.5104 33.2906 29.3907 33.3324 28.313 33.3827C27.2354 33.4161 26.2167 33.4664 25.2569 33.5333L25.1812 30.495ZM38.8452 37.9276C38.8452 39.3003 38.6768 40.4386 38.34 41.3426C38.0201 42.2465 37.5318 42.9329 36.8751 43.4016C36.2185 43.8536 35.4018 44.0796 34.4252 44.0796C33.9537 44.0796 33.457 43.9791 32.935 43.7783C32.4299 43.5774 31.9584 43.2844 31.5207 42.8994C31.0829 42.5144 30.7293 42.0373 30.4599 41.4681C30.2073 40.899 30.081 40.2294 30.081 39.4593C30.081 38.5051 30.3083 37.6849 30.7629 36.9985C31.2176 36.2954 31.8237 35.7514 32.5815 35.3664C33.356 34.9646 34.2063 34.7637 35.1324 34.7637C36.2437 34.7637 37.1698 35.0148 37.9107 35.517C38.6684 36.0025 39.2324 36.6637 39.6029 37.5007C39.9902 38.3377 40.1838 39.2835 40.1838 40.3382C40.1838 41.1584 40.0491 42.0122 39.7797 42.8994C39.5103 43.7866 39.0641 44.6571 38.4411 45.5109C37.8349 46.3479 37.0098 47.1095 35.9659 47.7959C34.9388 48.4822 33.6507 49.043 32.1016 49.4783L29.3991 46.8166C30.4767 46.599 31.4786 46.3144 32.4046 45.9628C33.3307 45.6113 34.139 45.1677 34.8293 44.632C35.5365 44.0963 36.0838 43.4351 36.471 42.6483C36.8751 41.8615 37.0772 40.9157 37.0772 39.8109C37.0772 39.0073 36.8751 38.4047 36.471 38.0029C36.0838 37.6012 35.6123 37.4003 35.0566 37.4003C34.7367 37.4003 34.4252 37.4756 34.1221 37.6263C33.819 37.7769 33.5749 38.0029 33.3897 38.3043C33.2044 38.6056 33.1118 38.9739 33.1118 39.4091C33.1118 39.9783 33.3055 40.4386 33.6928 40.7902C34.0969 41.125 34.5515 41.2924 35.0566 41.2924C35.4607 41.2924 35.8143 41.1668 36.1174 40.9157C36.4373 40.6646 36.6478 40.2461 36.7488 39.6602C36.8499 39.0743 36.7657 38.2875 36.4963 37.2998L38.8452 37.9276Z" fill="black"/>
<path d="M8.96623 27.231C8.94939 27.3649 8.92413 27.5741 8.89046 27.8587C8.85678 28.1266 8.82311 28.4028 8.78943 28.6873C8.77259 28.9552 8.75575 29.1979 8.73891 29.4155C8.70523 29.901 8.67156 30.4367 8.63788 31.0226C8.62105 31.5917 8.60421 32.186 8.58737 32.8054C8.57053 33.408 8.5537 34.0191 8.53686 34.6384C8.53686 35.2578 8.53686 35.8605 8.53686 36.4464C8.53686 37.1327 8.54527 37.8944 8.56211 38.7314C8.57895 39.5517 8.59579 40.3719 8.61263 41.1922C8.64631 41.9957 8.66315 42.7323 8.66315 43.4019C8.67998 44.0715 8.6884 44.5904 8.6884 44.9587C8.6884 45.9966 8.57053 46.8001 8.3348 47.3693C8.11591 47.9384 7.79599 48.3318 7.37504 48.5494C6.95409 48.7838 6.46579 48.901 5.91013 48.901C5.30397 48.901 4.6557 48.7754 3.96535 48.5243C3.27499 48.29 2.62673 47.9552 2.02056 47.5199C1.43123 47.0847 0.942928 46.5825 0.555655 46.0133C0.185219 45.4274 0 44.7997 0 44.1301C0 43.3265 0.303083 42.5314 0.909251 41.7446C1.53226 40.9411 2.3489 40.2045 3.35918 39.5349C4.3863 38.8653 5.48919 38.3296 6.66785 37.9279C7.79599 37.5094 8.95781 37.208 10.1533 37.0239C11.3488 36.823 12.4264 36.7226 13.3862 36.7226C14.6827 36.7226 15.853 36.9402 16.8969 37.3754C17.9409 37.7939 18.7743 38.4133 19.3974 39.2336C20.0204 40.0539 20.3319 41.0415 20.3319 42.1966C20.3319 43.1675 20.1466 44.0631 19.7762 44.8834C19.4058 45.7036 18.808 46.4151 17.983 47.0177C17.1747 47.6036 16.0971 48.064 14.7501 48.3988C14.1776 48.516 13.6051 48.5997 13.0326 48.6499C12.4769 48.7169 11.9465 48.7671 11.4414 48.8006L10.2796 45.5613C10.8521 45.5613 11.3993 45.553 11.9213 45.5362C12.4601 45.5028 12.9484 45.4525 13.3862 45.3856C14.0766 45.2517 14.6996 45.0508 15.2552 44.7829C15.8109 44.5151 16.2487 44.1635 16.5686 43.7283C16.8885 43.2931 17.0485 42.7741 17.0485 42.1715C17.0485 41.6023 16.8885 41.1169 16.5686 40.7151C16.2655 40.3133 15.8361 40.0036 15.2805 39.786C14.7248 39.5684 14.0766 39.4596 13.3357 39.4596C12.2749 39.4596 11.1973 39.5684 10.1028 39.786C9.02516 40.0036 7.98962 40.305 6.99618 40.69C6.25531 40.9746 5.59021 41.3094 5.00088 41.6944C4.41155 42.0627 3.94851 42.4477 3.61175 42.8495C3.27499 43.2512 3.10661 43.6362 3.10661 44.0045C3.10661 44.2054 3.16554 44.3979 3.28341 44.5821C3.41811 44.7495 3.58649 44.9001 3.78855 45.034C3.9906 45.168 4.19266 45.2768 4.39472 45.3605C4.61361 45.4274 4.79883 45.4609 4.95037 45.4609C5.1861 45.4609 5.37973 45.3939 5.53128 45.26C5.68282 45.1094 5.7586 44.8248 5.7586 44.4063C5.7586 43.9543 5.74175 43.3098 5.70807 42.4728C5.69124 41.6191 5.66599 40.6732 5.63231 39.6354C5.61547 38.5975 5.60705 37.568 5.60705 36.5468C5.60705 35.8437 5.60705 35.1323 5.60705 34.4125C5.62389 33.6926 5.63231 33.0063 5.63231 32.3534C5.63231 31.7006 5.63231 31.123 5.63231 30.6208C5.64915 30.1186 5.65756 29.7252 5.65756 29.4406C5.65756 29.2565 5.64915 29.0221 5.63231 28.7376C5.61547 28.453 5.59021 28.1684 5.55654 27.8838C5.5397 27.5825 5.51444 27.3649 5.48076 27.231H8.96623ZM16.1645 29.9428C16.8043 30.2442 17.5199 30.6125 18.3113 31.0477C19.1195 31.4829 19.8857 31.9182 20.6097 32.3534C21.3506 32.7719 21.9399 33.1486 22.3777 33.4834L20.8623 36.0446C20.5423 35.7768 20.1214 35.4754 19.5994 35.1406C19.0943 34.8058 18.5386 34.4627 17.9324 34.1111C17.3431 33.7596 16.7706 33.4332 16.215 33.1318C15.6593 32.8138 15.1794 32.5627 14.7753 32.3785L16.1645 29.9428ZM0.68194 31.3239C1.42281 31.4076 2.07107 31.4662 2.62673 31.4997C3.19922 31.5164 3.71278 31.5248 4.1674 31.5248C4.82409 31.5248 5.54812 31.4997 6.3395 31.4495C7.13089 31.3825 7.93911 31.2988 8.76417 31.1984C9.58923 31.0812 10.389 30.9473 11.1636 30.7966C11.955 30.6459 12.6706 30.4785 13.3104 30.2944L13.3862 33.408C12.679 33.5754 11.9129 33.7261 11.0878 33.86C10.2628 33.9772 9.42927 34.086 8.58737 34.1865C7.76231 34.2869 6.97092 34.3622 6.21322 34.4125C5.47235 34.4627 4.82408 34.4878 4.26843 34.4878C3.42653 34.4878 2.73617 34.4794 2.19736 34.4627C1.65854 34.4459 1.17024 34.4125 0.732453 34.3622L0.68194 31.3239Z" fill="black"/>
<path d="M80.6026 11.1675V19.0857H76.7817V5.38928H80.4232V7.80577H80.5846C80.8896 7.00919 81.4008 6.37906 82.1183 5.91538C82.8359 5.44575 83.7059 5.21094 84.7284 5.21094C85.6851 5.21094 86.5192 5.419 87.2307 5.83512C87.9423 6.25125 88.4954 6.84571 88.89 7.61851C89.2847 8.38537 89.482 9.30084 89.482 10.3649V19.0857H85.6611V11.0426C85.6671 10.2044 85.4519 9.55052 85.0154 9.08089C84.5789 8.60532 83.9779 8.36754 83.2126 8.36754C82.6983 8.36754 82.2439 8.47751 81.8493 8.69746C81.4606 8.91742 81.1557 9.23843 80.9344 9.66049C80.7192 10.0766 80.6086 10.5789 80.6026 11.1675Z" fill="#009944"/>
<path d="M68.2177 19.3532C66.8006 19.3532 65.5808 19.0679 64.5584 18.4972C63.5419 17.9206 62.7586 17.1061 62.2085 16.0539C61.6584 14.9958 61.3833 13.7445 61.3833 12.2999C61.3833 10.891 61.6584 9.65455 62.2085 8.59046C62.7586 7.52637 63.5329 6.69709 64.5315 6.10263C65.536 5.50817 66.7139 5.21094 68.0653 5.21094C68.9741 5.21094 69.8202 5.35658 70.6035 5.64787C71.3928 5.93321 72.0804 6.3642 72.6664 6.94083C73.2584 7.51745 73.7188 8.2427 74.0477 9.11656C74.3765 9.98448 74.541 11.001 74.541 12.1662V13.2094H62.908V10.8554H70.9444C70.9444 10.3085 70.8248 9.82397 70.5856 9.4019C70.3464 8.97983 70.0146 8.64991 69.59 8.41212C69.1715 8.16839 68.6841 8.04653 68.1281 8.04653C67.5481 8.04653 67.0338 8.18028 66.5854 8.44779C66.1429 8.70935 65.7961 9.06306 65.545 9.50891C65.2938 9.94881 65.1653 10.4392 65.1593 10.9802V13.2184C65.1593 13.896 65.2849 14.4816 65.536 14.975C65.7931 15.4684 66.1549 15.8489 66.6213 16.1164C67.0876 16.3839 67.6407 16.5176 68.2805 16.5176C68.7051 16.5176 69.0937 16.4582 69.4465 16.3393C69.7993 16.2204 70.1013 16.0421 70.3524 15.8043C70.6035 15.5665 70.7949 15.2752 70.9264 14.9304L74.4602 15.1623C74.2809 16.0064 73.9131 16.7435 73.357 17.3737C72.8069 17.9978 72.0954 18.4853 71.2224 18.836C70.3554 19.1808 69.3538 19.3532 68.2177 19.3532Z" fill="#009944"/>
<path d="M51.5212 15.1443L51.5301 10.5878H52.0862L56.499 5.38921H60.8849L54.9563 12.2731H54.0504L51.5212 15.1443ZM48.0591 19.0856V0.82373H51.8799V19.0856H48.0591ZM56.6694 19.0856L52.6154 13.1202L55.1626 10.4362L61.145 19.0856H56.6694Z" fill="#009944"/>
<path d="M37.0734 15.1443L37.0824 10.5878H37.6385L42.0512 5.38921H46.4371L40.5086 12.2731H39.6027L37.0734 15.1443ZM33.6113 19.0856V0.82373H37.4322V19.0856H33.6113ZM42.2217 19.0856L38.1676 13.1202L40.7149 10.4362L46.6972 19.0856H42.2217Z" fill="#009944"/>
<path d="M23.1411 19.3443C22.2622 19.3443 21.4789 19.1927 20.7912 18.8895C20.1036 18.5804 19.5595 18.1256 19.1589 17.5252C18.7642 16.9189 18.5669 16.1639 18.5669 15.2603C18.5669 14.4994 18.7074 13.8604 18.9884 13.3432C19.2695 12.826 19.6522 12.4099 20.1365 12.0948C20.6208 11.7798 21.1709 11.542 21.7868 11.3815C22.4087 11.221 23.0604 11.108 23.7421 11.0426C24.5433 10.9594 25.1891 10.8821 25.6794 10.8108C26.1697 10.7335 26.5255 10.6206 26.7467 10.4719C26.9679 10.3233 27.0786 10.1034 27.0786 9.81208V9.75858C27.0786 9.19384 26.8992 8.75691 26.5404 8.44779C26.1876 8.13867 25.6854 7.98411 25.0336 7.98411C24.346 7.98411 23.7989 8.1357 23.3923 8.43887C22.9857 8.7361 22.7166 9.11062 22.585 9.56241L19.0512 9.27707C19.2306 8.44482 19.5834 7.72552 20.1096 7.11916C20.6358 6.50687 21.3144 6.03724 22.1456 5.71029C22.9827 5.37739 23.9513 5.21094 25.0515 5.21094C25.8169 5.21094 26.5494 5.30011 27.249 5.47844C27.9545 5.65678 28.5794 5.93321 29.1235 6.30772C29.6736 6.68223 30.1071 7.16375 30.424 7.75227C30.7409 8.33484 30.8994 9.03334 30.8994 9.84775V19.0857H27.2759V17.1864H27.1683C26.947 17.6144 26.651 17.9919 26.2803 18.3188C25.9096 18.6399 25.4641 18.8925 24.9439 19.0768C24.4237 19.2551 23.8228 19.3443 23.1411 19.3443ZM24.2354 16.7227C24.7974 16.7227 25.2937 16.6127 25.7242 16.3928C26.1547 16.1669 26.4926 15.8637 26.7377 15.4833C26.9829 15.1028 27.1055 14.6718 27.1055 14.1903V12.7368C26.9859 12.8141 26.8215 12.8855 26.6122 12.9508C26.4089 13.0103 26.1787 13.0668 25.9216 13.1203C25.6644 13.1678 25.4073 13.2124 25.1502 13.254C24.8931 13.2897 24.6599 13.3224 24.4506 13.3521C24.0022 13.4175 23.6105 13.5215 23.2757 13.6642C22.9408 13.8069 22.6807 14.0001 22.4954 14.2438C22.31 14.4816 22.2173 14.7788 22.2173 15.1355C22.2173 15.6527 22.4057 16.048 22.7824 16.3215C23.1651 16.589 23.6494 16.7227 24.2354 16.7227Z" fill="#009944"/>
<path d="M12.5029 6.72691C12.3773 6.29295 12.201 5.90952 11.9737 5.57662C11.7465 5.23778 11.4685 4.95244 11.1396 4.7206C10.8167 4.48281 10.446 4.3015 10.0274 4.17667C9.61487 4.05183 9.15744 3.98941 8.65517 3.98941C7.71641 3.98941 6.89125 4.22125 6.1797 4.68493C5.47414 5.14861 4.92403 5.82333 4.52939 6.70908C4.13475 7.58888 3.93743 8.66486 3.93743 9.93701C3.93743 11.2092 4.13176 12.2911 4.52042 13.1828C4.90908 14.0745 5.45919 14.7551 6.17074 15.2248C6.88228 15.6884 7.72239 15.9203 8.69105 15.9203C9.57002 15.9203 10.3204 15.7657 10.9423 15.4566C11.5701 15.1415 12.0485 14.6987 12.3773 14.128C12.7122 13.5573 12.8796 12.8826 12.8796 12.1038L13.6689 12.2198H8.93322V9.31283H16.6197V11.6134C16.6197 13.2184 16.2789 14.5976 15.5973 15.7509C14.9156 16.8982 13.9768 17.7839 12.781 18.4081C11.5851 19.0264 10.2158 19.3355 8.67311 19.3355C6.95105 19.3355 5.43826 18.958 4.13475 18.203C2.83124 17.4421 1.81475 16.3632 1.08526 14.9662C0.361753 13.5632 0 11.8987 0 9.97268C0 8.49247 0.215258 7.17276 0.645775 6.01356C1.08227 4.84841 1.69217 3.8616 2.47547 3.05313C3.25877 2.24466 4.17063 1.62939 5.21104 1.20732C6.25146 0.785253 7.37857 0.574219 8.59239 0.574219C9.63281 0.574219 10.6015 0.725807 11.4984 1.02898C12.3953 1.32622 13.1905 1.74828 13.8842 2.29519C14.5837 2.8421 15.1548 3.49303 15.5973 4.248C16.0397 4.99702 16.3237 5.82333 16.4493 6.72691H12.5029Z" fill="#009944"/>
</svg>
