<svg width="472" height="42" viewBox="0 0 472 42" fill="none" xmlns="http://www.w3.org/2000/svg">
<path d="M22.3209 16.3438C22.1022 15.5833 21.7949 14.9115 21.3991 14.3281C21.0032 13.7344 20.5189 13.2344 19.9459 12.8281C19.3834 12.4115 18.7376 12.0937 18.0084 11.875C17.2897 11.6563 16.4928 11.5469 15.6178 11.5469C13.9824 11.5469 12.5449 11.9531 11.3053 12.7656C10.0761 13.5781 9.11781 14.7604 8.43031 16.3125C7.74281 17.8542 7.39906 19.7396 7.39906 21.9687C7.39906 24.1979 7.73761 26.0937 8.41469 27.6562C9.09177 29.2187 10.0501 30.4115 11.2897 31.2344C12.5293 32.0469 13.9928 32.4531 15.6803 32.4531C17.2116 32.4531 18.5189 32.1823 19.6022 31.6406C20.6959 31.0885 21.5293 30.3125 22.1022 29.3125C22.6855 28.3125 22.9772 27.1302 22.9772 25.7656L24.3522 25.9688H16.1022V20.875H29.4928V24.9062C29.4928 27.7187 28.8991 30.1354 27.7116 32.1562C26.5241 34.1667 24.8886 35.7187 22.8053 36.8125C20.722 37.8958 18.3366 38.4375 15.6491 38.4375C12.6491 38.4375 10.0136 37.776 7.74281 36.4531C5.47198 35.1198 3.70115 33.2292 2.43031 30.7812C1.1699 28.3229 0.539688 25.4062 0.539688 22.0312C0.539688 19.4375 0.914688 17.125 1.66469 15.0937C2.4251 13.0521 3.4876 11.3229 4.85219 9.90625C6.21677 8.48958 7.80531 7.41146 9.61781 6.67187C11.4303 5.93229 13.3939 5.5625 15.5084 5.5625C17.3209 5.5625 19.0084 5.82812 20.5709 6.35937C22.1334 6.88021 23.5189 7.61979 24.7272 8.57812C25.9459 9.53646 26.9407 10.6771 27.7116 12C28.4824 13.3125 28.9772 14.7604 29.1959 16.3438H22.3209ZM40.8536 38.4531C39.3223 38.4531 37.9578 38.1875 36.7598 37.6562C35.5619 37.1146 34.614 36.3177 33.9161 35.2656C33.2286 34.2031 32.8848 32.8802 32.8848 31.2969C32.8848 29.9635 33.1296 28.8437 33.6192 27.9375C34.1088 27.0313 34.7755 26.3021 35.6192 25.75C36.463 25.1979 37.4213 24.7812 38.4942 24.5C39.5776 24.2187 40.713 24.0208 41.9005 23.9062C43.2963 23.7604 44.4213 23.625 45.2755 23.5C46.1296 23.3646 46.7494 23.1667 47.1348 22.9062C47.5203 22.6458 47.713 22.2604 47.713 21.75V21.6562C47.713 20.6667 47.4005 19.901 46.7755 19.3594C46.1609 18.8177 45.2859 18.5469 44.1505 18.5469C42.9526 18.5469 41.9994 18.8125 41.2911 19.3437C40.5828 19.8646 40.114 20.5208 39.8848 21.3125L33.7286 20.8125C34.0411 19.3542 34.6557 18.0937 35.5723 17.0312C36.489 15.9583 37.6713 15.1354 39.1192 14.5625C40.5776 13.9792 42.2651 13.6875 44.1817 13.6875C45.5151 13.6875 46.7911 13.8437 48.0098 14.1562C49.239 14.4687 50.3276 14.9531 51.2755 15.6094C52.2338 16.2656 52.989 17.1094 53.5411 18.1406C54.0932 19.1615 54.3692 20.3854 54.3692 21.8125V38H48.0567V34.6719H47.8692C47.4838 35.4219 46.9682 36.0833 46.3223 36.6562C45.6765 37.2187 44.9005 37.6615 43.9942 37.9844C43.088 38.2969 42.0411 38.4531 40.8536 38.4531ZM42.7598 33.8594C43.739 33.8594 44.6036 33.6667 45.3536 33.2812C46.1036 32.8854 46.6921 32.3542 47.1192 31.6875C47.5463 31.0208 47.7598 30.2656 47.7598 29.4219V26.875C47.5515 27.0104 47.2651 27.1354 46.9005 27.25C46.5463 27.3542 46.1453 27.4531 45.6973 27.5469C45.2494 27.6302 44.8015 27.7083 44.3536 27.7812C43.9057 27.8437 43.4994 27.901 43.1348 27.9531C42.3536 28.0677 41.6713 28.25 41.088 28.5C40.5046 28.75 40.0515 29.0885 39.7286 29.5156C39.4057 29.9323 39.2442 30.4531 39.2442 31.0781C39.2442 31.9844 39.5723 32.6771 40.2286 33.1562C40.8953 33.625 41.739 33.8594 42.7598 33.8594ZM65.1245 31.0937L65.1402 23.1094H66.1089L73.7964 14H81.437L71.1089 26.0625H69.5308L65.1245 31.0937ZM59.0933 38V6H65.7495V38H59.0933ZM74.0933 38L67.0308 27.5469L71.4683 22.8437L81.8902 38H74.0933ZM90.2939 31.0937L90.3095 23.1094H91.2783L98.9658 14H106.606L96.2783 26.0625H94.7002L90.2939 31.0937ZM84.2627 38V6H90.9189V38H84.2627ZM99.2627 38L92.2002 27.5469L96.6377 22.8437L107.06 38H99.2627ZM119.381 38.4688C116.912 38.4688 114.787 37.9688 113.006 36.9688C111.235 35.9583 109.871 34.5312 108.912 32.6875C107.954 30.8333 107.475 28.6406 107.475 26.1094C107.475 23.6406 107.954 21.474 108.912 19.6094C109.871 17.7448 111.22 16.2917 112.959 15.25C114.709 14.2083 116.761 13.6875 119.116 13.6875C120.699 13.6875 122.173 13.9427 123.537 14.4531C124.912 14.9531 126.11 15.7083 127.131 16.7187C128.162 17.7292 128.965 19 129.537 20.5312C130.11 22.0521 130.397 23.8333 130.397 25.875V27.7031H110.131V23.5781H124.131C124.131 22.6198 123.923 21.7708 123.506 21.0313C123.09 20.2917 122.511 19.7135 121.772 19.2969C121.043 18.8698 120.194 18.6562 119.225 18.6562C118.215 18.6562 117.319 18.8906 116.537 19.3594C115.767 19.8177 115.162 20.4375 114.725 21.2187C114.287 21.9896 114.064 22.849 114.053 23.7969V27.7187C114.053 28.9062 114.272 29.9323 114.709 30.7969C115.157 31.6615 115.787 32.3281 116.6 32.7969C117.412 33.2656 118.376 33.5 119.491 33.5C120.23 33.5 120.907 33.3958 121.522 33.1875C122.136 32.9792 122.662 32.6667 123.1 32.25C123.537 31.8333 123.871 31.3229 124.1 30.7188L130.256 31.125C129.944 32.6042 129.303 33.8958 128.334 35C127.376 36.0937 126.136 36.9479 124.616 37.5625C123.105 38.1667 121.36 38.4688 119.381 38.4688ZM140.957 24.125V38H134.301V14H140.644V18.2344H140.926C141.457 16.8385 142.348 15.7344 143.598 14.9219C144.848 14.099 146.363 13.6875 148.144 13.6875C149.811 13.6875 151.264 14.0521 152.504 14.7812C153.743 15.5104 154.707 16.5521 155.394 17.9062C156.082 19.25 156.426 20.8542 156.426 22.7187V38H149.769V23.9062C149.78 22.4375 149.405 21.2917 148.644 20.4688C147.884 19.6354 146.837 19.2187 145.504 19.2187C144.608 19.2187 143.816 19.4115 143.129 19.7969C142.452 20.1823 141.92 20.7448 141.535 21.4844C141.16 22.2135 140.967 23.0938 140.957 24.125Z" fill="#009944"/>
<path d="M187.503 2.272C187.371 3.064 187.195 4.956 187.107 6.1C187.063 7.068 187.019 8.124 186.975 9.224C189.879 8.872 192.783 8.3 195.071 7.64L195.203 13.096C192.695 13.668 189.659 14.108 186.799 14.46C186.755 15.78 186.755 17.144 186.755 18.42C186.755 18.948 186.755 19.476 186.755 20.048C189.747 19.3 192.783 18.904 195.203 18.904C201.979 18.904 207.303 22.424 207.303 28.496C207.303 33.688 204.575 37.604 197.579 39.364C195.555 39.804 193.619 39.936 191.815 40.068L189.791 34.392C191.771 34.392 193.663 34.348 195.203 34.084C198.767 33.424 201.583 31.664 201.583 28.452C201.583 25.46 198.943 23.7 195.115 23.7C192.387 23.7 189.527 24.14 186.843 24.932C186.931 28.408 187.019 31.84 187.019 33.336C187.019 38.792 185.083 40.244 182.179 40.244C177.911 40.244 171.883 36.548 171.883 31.884C171.883 28.056 176.283 24.052 181.695 21.72C181.651 20.664 181.651 19.608 181.651 18.596C181.651 17.364 181.651 16.132 181.651 14.9C180.815 14.944 180.023 14.988 179.319 14.988C176.371 14.988 174.655 14.944 173.159 14.768L173.071 9.444C175.667 9.752 177.559 9.796 179.143 9.796C179.935 9.796 180.815 9.752 181.695 9.708C181.739 8.168 181.739 6.892 181.739 6.144C181.739 5.22 181.563 3.064 181.431 2.272H187.503ZM200.043 7.024C203.431 8.652 208.535 11.556 210.867 13.228L208.227 17.716C206.115 15.912 200.351 12.612 197.623 11.292L200.043 7.024ZM177.295 31.664C177.295 33.028 179.363 34.216 180.507 34.216C181.299 34.216 181.915 33.864 181.915 32.368C181.915 31.268 181.871 29.244 181.783 26.868C179.099 28.32 177.295 30.124 177.295 31.664ZM240.611 2.536C240.523 3.24 240.347 5.616 240.303 6.32C240.303 6.672 240.303 7.156 240.259 7.684C244.703 7.684 250.731 7.596 253.019 7.64L252.975 12.832C250.335 12.7 246.243 12.612 240.259 12.612C240.259 14.856 240.303 17.276 240.303 19.212C241.359 20.884 241.887 22.952 241.887 25.24C241.887 30.96 238.543 38.264 227.807 41.256L223.099 36.592C227.543 35.668 231.415 34.216 233.835 31.576C233.219 31.708 232.559 31.796 231.855 31.796C228.467 31.796 224.287 29.068 224.287 23.7C224.287 18.728 228.291 15.472 233.087 15.472C233.703 15.472 234.275 15.516 234.847 15.604C234.847 14.636 234.847 13.624 234.803 12.656C228.159 12.744 221.295 13.008 215.883 13.316L215.751 7.992C220.767 7.992 228.775 7.816 234.759 7.728C234.715 7.156 234.715 6.716 234.671 6.364C234.539 4.56 234.363 3.064 234.231 2.536H240.611ZM229.567 23.612C229.567 25.636 231.195 26.912 232.955 26.912C234.803 26.912 236.431 25.504 235.815 21.632C235.199 20.62 234.143 20.092 232.955 20.092C231.239 20.092 229.567 21.28 229.567 23.612ZM284.171 2.536C284.083 3.24 283.907 5.616 283.863 6.32C283.863 6.672 283.863 7.156 283.819 7.684C288.263 7.684 294.291 7.596 296.579 7.64L296.535 12.832C293.895 12.7 289.803 12.612 283.819 12.612C283.819 14.856 283.863 17.276 283.863 19.212C284.919 20.884 285.447 22.952 285.447 25.24C285.447 30.96 282.103 38.264 271.367 41.256L266.659 36.592C271.103 35.668 274.975 34.216 277.395 31.576C276.779 31.708 276.119 31.796 275.415 31.796C272.027 31.796 267.847 29.068 267.847 23.7C267.847 18.728 271.851 15.472 276.647 15.472C277.263 15.472 277.835 15.516 278.407 15.604C278.407 14.636 278.407 13.624 278.363 12.656C271.719 12.744 264.855 13.008 259.443 13.316L259.311 7.992C264.327 7.992 272.335 7.816 278.319 7.728C278.275 7.156 278.275 6.716 278.231 6.364C278.099 4.56 277.923 3.064 277.791 2.536H284.171ZM273.127 23.612C273.127 25.636 274.755 26.912 276.515 26.912C278.363 26.912 279.991 25.504 279.375 21.632C278.759 20.62 277.703 20.092 276.515 20.092C274.799 20.092 273.127 21.28 273.127 23.612ZM329.755 3.504C329.403 4.692 329.007 6.848 328.743 7.948C328.611 8.52 328.479 9.048 328.347 9.62C335.255 11.204 339.831 16.792 339.831 24.492C339.831 33.82 333.187 39.144 324.035 40.552L320.691 35.448C330.327 34.656 334.155 29.684 334.155 24.184C334.155 19.3 331.427 15.648 327.027 14.46C325.487 19.564 323.551 24.624 321.043 28.452C321.835 29.376 322.627 30.3 323.463 31.092L319.019 34.612C318.491 34.04 317.963 33.468 317.523 32.896C314.575 36.108 312.111 37.56 308.855 37.56C305.203 37.56 301.859 34.48 301.859 28.804C301.859 23.788 304.367 18.42 308.371 14.9C307.931 13.712 307.579 12.524 307.183 11.336C306.699 9.752 306.215 8.344 305.423 6.76L311.187 4.956C311.451 6.408 311.803 7.86 312.155 9.18C312.375 10.016 312.639 10.94 312.947 11.864C316.291 10.192 319.547 9.356 322.935 9.224C323.111 8.476 323.243 7.772 323.331 7.112C323.551 5.836 323.683 3.944 323.683 2.932L329.755 3.504ZM307.007 28.364C307.007 30.52 307.931 31.884 309.515 31.884C311.099 31.884 312.727 30.52 314.355 28.54C312.947 26.384 311.539 23.392 310.263 20.092C308.195 22.512 307.007 25.636 307.007 28.364ZM314.531 16.66C315.543 19.388 316.643 21.94 317.699 23.7C319.283 20.884 320.603 17.452 321.615 14.196C318.931 14.504 316.599 15.428 314.531 16.66ZM383.347 22.512C383.347 31.796 377.671 38.352 366.583 40.068L363.283 34.832C364.955 34.656 366.187 34.392 367.375 34.128C373.007 32.808 377.407 28.76 377.407 22.336C377.407 16.264 374.107 11.732 368.167 10.72C367.551 14.46 366.803 18.508 365.527 22.644C362.887 31.532 359.103 36.988 354.307 36.988C349.423 36.988 345.375 31.62 345.375 24.184C345.375 14.02 354.175 5.352 365.571 5.352C376.483 5.352 383.347 12.92 383.347 22.512ZM351.007 23.612C351.007 28.056 352.767 30.212 354.483 30.212C356.331 30.212 358.047 27.44 359.851 21.5C360.863 18.244 361.699 14.504 362.183 10.852C354.923 12.348 351.007 18.772 351.007 23.612ZM417.755 31.004H398.923V32.588H417.755V31.004ZM398.923 37.34H417.755V35.624H398.923V37.34ZM393.863 41.96V27.66H423.035V41.916H417.755V40.64H398.923V41.96H393.863ZM410.539 11.644V13.316H417.623V11.644H410.539ZM410.539 6.408V8.036H417.623V6.408H410.539ZM422.815 16.352H410.539V17.892H424.619V21.06H410.539V22.644H427.831V26.296H388.363V22.644H405.303V21.06H391.443V17.892H405.303V16.352H392.411V13.316H405.303V11.644H388.407V8.036H405.303V6.408H392.895V3.372H405.303V0.599999H410.539V3.372H422.815V8.036H427.831V11.644H422.815V16.352ZM464.131 29.86H456.783V31.972H464.131V29.86ZM456.783 37.252H464.131V35.096H456.783V37.252ZM452.031 41.828V26.428H469.147V41.696H464.131V40.64H456.783V41.828H452.031ZM462.459 11.248L461.183 11.732C461.007 10.852 460.567 9.664 460.039 8.52H457.883C457.399 9.356 456.871 10.104 456.343 10.852H458.675V14.02H462.459V11.248ZM462.459 20.928V17.672H458.675V20.928H462.459ZM471.391 4.296V8.52H465.099C465.319 9.092 465.539 9.62 465.671 10.016L463.515 10.852H467.255V14.02H470.819V17.672H467.255V20.928H471.303V24.8H449.215L449.259 28.496H444.111C446.091 30.168 449.303 33.116 450.183 33.996L447.367 37.56C446.399 36.372 444.815 34.612 443.275 32.94V41.916H438.347V34.392C436.763 36.592 435.003 38.66 433.331 40.156C432.803 39.056 431.747 37.252 430.823 36.328C433.155 34.612 435.795 31.532 437.511 28.496H431.791V24.8H438.347V22.996H433.199V19.388H438.347V17.54H432.539V13.844H438.347V10.94H442.571C442.263 10.148 441.823 9.356 441.383 8.52H439.403C438.127 10.412 436.719 12.172 435.399 13.536C434.387 12.656 432.231 11.204 431.043 10.544C433.903 8.212 436.455 4.34 437.863 0.599999L442.923 1.964C442.615 2.712 442.219 3.504 441.867 4.296H451.591V8.52H446.663C447.147 9.4 447.543 10.236 447.763 10.94L443.275 12.744V13.844H448.599V17.54H443.275V19.388H447.895V22.996H443.275V24.8H449.171L449.127 20.928H453.879V17.672H450.007V14.02H453.879V12.348C452.779 11.556 451.283 10.544 450.227 9.972C452.647 7.816 454.671 4.296 455.683 0.775999L460.787 2.008C460.567 2.756 460.303 3.504 459.995 4.296H471.391Z" fill="black"/>
</svg>
