<svg width="237" height="51" viewBox="0 0 237 51" fill="none" xmlns="http://www.w3.org/2000/svg">
<path d="M237 26.0683C237 18.5469 230.685 12.4277 222.838 12.4277C219.903 12.4277 217.224 13.2564 214.927 14.7861V13.5113H203.699V49.7161H214.927V28.7454C214.927 25.3671 217.415 22.69 220.541 22.69C223.667 22.69 226.155 25.4309 226.155 28.7454V49.7161H236.936V26.132L237 26.0683Z" fill="#009944"/>
<path d="M165.739 13.4498H153.235L142.326 28.4289V2.23145H131.098V49.6546H142.326V35.5042L151.895 49.5271H164.782L152.916 31.2335L165.739 13.4498Z" fill="#009944"/>
<path d="M129.946 13.4498H117.506L106.597 28.4289V2.23145H95.3052V49.6546H106.597V35.5042L116.102 49.5271H128.989L117.187 31.2335L129.946 13.4498Z" fill="#009944"/>
<path d="M50.7808 25.3688C50.7808 39.3918 39.4253 50.7377 25.3904 50.7377C11.3555 50.7377 0 39.3918 0 25.3688C0 11.3459 11.3555 0 25.3904 0C36.5545 0 45.9962 7.20271 49.3773 17.1463H37.2563C34.7683 12.9394 30.3664 10.1985 25.3904 10.1985C17.6074 10.1985 11.2279 17.0188 11.2279 25.4326C11.2279 33.8464 17.5436 40.6029 25.3904 40.6029C30.813 40.6029 35.47 37.3521 37.8304 32.5716H22.8386V22.2456H50.5256C50.6532 23.2654 50.717 24.349 50.717 25.4326" fill="#009944"/>
<path d="M201.534 31.6137C201.534 21.0327 192.73 12.4277 181.885 12.4277C171.04 12.4277 162.236 21.0327 162.236 31.6137C162.236 42.1947 171.04 50.7997 181.885 50.7997C190.306 50.7997 197.451 45.6367 200.258 38.3703H188.966C187.308 40.9199 184.756 42.5134 181.885 42.5134C177.994 42.5134 174.74 39.5813 173.528 35.4382H201.151C201.406 34.1634 201.598 32.8885 201.598 31.55L201.534 31.6137ZM173.783 27.4706C175.187 23.8373 178.249 21.2877 181.885 21.2877C185.521 21.2877 188.584 23.8373 189.987 27.4706H173.847H173.783Z" fill="#009944"/>
<path d="M80.763 13.4478V15.0413C78.0198 13.5115 74.8938 12.6191 71.5127 12.6191C60.9865 12.6191 52.438 21.1604 52.438 31.6776C52.438 42.1949 60.0934 50.7361 71.5127 50.7361C74.1283 50.7361 77.1904 49.7163 80.125 47.9316C80.3164 47.8041 80.763 48.059 80.763 48.314V49.6526H91.5443V13.4478H80.763ZM72.0868 41.4937C66.8557 41.4937 62.6452 36.9681 62.6452 31.2952C62.6452 25.6223 66.8557 21.0967 72.0868 21.0967C77.318 21.0967 81.5285 25.686 81.5285 31.2952C81.5285 36.9044 77.318 41.4937 72.0868 41.4937Z" fill="#009944"/>
</svg>
