<svg width="140" height="30" viewBox="0 0 140 30" fill="none" xmlns="http://www.w3.org/2000/svg">
<path d="M139.999 15.3989C139.999 10.9559 136.269 7.34131 131.633 7.34131C129.9 7.34131 128.317 7.83079 126.961 8.73445V7.9814H120.328V29.368H126.961V16.9803C126.961 14.9848 128.43 13.4033 130.277 13.4033C132.123 13.4033 133.593 15.0224 133.593 16.9803V29.368H139.962V15.4366L139.999 15.3989Z" fill="white"/>
<path d="M97.9041 7.94421H90.5179L84.0739 16.7925V1.31738H77.4414V29.3308H84.0739V20.972L89.7265 29.2555H97.3388L90.3295 18.4492L97.9041 7.94421Z" fill="white"/>
<path d="M76.7595 7.94421H69.4111L62.967 16.7925V1.31738H56.2969V29.3308H62.967V20.972L68.582 29.2555H76.1943L69.2226 18.4492L76.7595 7.94421Z" fill="white"/>
<path d="M29.9968 14.9857C29.9968 23.2692 23.289 29.9713 14.9984 29.9713C6.70783 29.9713 0 23.2692 0 14.9857C0 6.70213 6.70783 0 14.9984 0C21.5932 0 27.1705 4.25473 29.1678 10.1285H22.0077C20.538 7.64345 17.9378 6.02439 14.9984 6.02439C10.4009 6.02439 6.63246 10.0532 6.63246 15.0233C6.63246 19.9934 10.3632 23.9846 14.9984 23.9846C18.2016 23.9846 20.9526 22.0643 22.3469 19.2404H13.491V13.1407H29.8461C29.9214 13.7431 29.9591 14.3832 29.9591 15.0233" fill="white"/>
<path d="M119.05 18.6747C119.05 12.4244 113.849 7.34131 107.443 7.34131C101.036 7.34131 95.8359 12.4244 95.8359 18.6747C95.8359 24.925 101.036 30.0081 107.443 30.0081C112.417 30.0081 116.638 26.9582 118.296 22.6659H111.626C110.646 24.1719 109.139 25.1133 107.443 25.1133C105.144 25.1133 103.222 23.3812 102.506 20.9338H118.823C118.974 20.1808 119.087 19.4277 119.087 18.637L119.05 18.6747ZM102.657 16.2273C103.486 14.0811 105.295 12.575 107.443 12.575C109.591 12.575 111.4 14.0811 112.229 16.2273H102.695H102.657Z" fill="white"/>
<path d="M47.7085 7.94358V8.88489C46.088 7.98124 44.2415 7.4541 42.2442 7.4541C36.0263 7.4541 30.9766 12.4995 30.9766 18.7122C30.9766 24.9248 35.4987 29.9703 42.2442 29.9703C43.7893 29.9703 45.5981 29.3678 47.3316 28.3135C47.4447 28.2382 47.7085 28.3889 47.7085 28.5395V29.3302H54.0771V7.94358H47.7085ZM42.5834 24.5107C39.4932 24.5107 37.0061 21.8373 37.0061 18.4863C37.0061 15.1352 39.4932 12.4619 42.5834 12.4619C45.6735 12.4619 48.1607 15.1728 48.1607 18.4863C48.1607 21.7997 45.6735 24.5107 42.5834 24.5107Z" fill="white"/>
</svg>
